<?xml version="1.0" encoding="utf-8"?>
<!-- Generator: Adobe Illustrator 17.1.0, SVG Export Plug-In . SVG Version: 6.00 Build 0)  -->
<!DOCTYPE svg PUBLIC "-//W3C//DTD SVG 1.1//EN" "http://www.w3.org/Graphics/SVG/1.1/DTD/svg11.dtd">
<svg version="1.1"
	 id="svg7350" xmlns:dc="http://purl.org/dc/elements/1.1/" xmlns:cc="http://creativecommons.org/ns#" xmlns:rdf="http://www.w3.org/1999/02/22-rdf-syntax-ns#" xmlns:svg="http://www.w3.org/2000/svg" xmlns:sodipodi="http://sodipodi.sourceforge.net/DTD/sodipodi-0.dtd" xmlns:inkscape="http://www.inkscape.org/namespaces/inkscape" inkscape:output_extension="org.inkscape.output.svg.inkscape" sodipodi:version="0.32" sodipodi:docname="icon.svg" inkscape:version="0.47 r22583"
	 xmlns="http://www.w3.org/2000/svg" xmlns:xlink="http://www.w3.org/1999/xlink" x="0px" y="0px" viewBox="0 0 48 48"
	 enable-background="new 0 0 48 48" xml:space="preserve">
<filter  width="1.2223207" height="2.0143383" id="filter6290" y="-0.50716913" x="-0.11116035" inkscape:collect="always">
	<feGaussianBlur  stdDeviation="2.0286765" id="feGaussianBlur6292" inkscape:collect="always"></feGaussianBlur>
</filter>
<defs>
	
	
		<inkscape:perspective  id="perspective178" inkscape:vp_z="48 : 24 : 1" inkscape:vp_y="0 : 1000 : 0" inkscape:vp_x="0 : 24 : 1" sodipodi:type="inkscape:persp3d" inkscape:persp3d-origin="24 : 16 : 1">
		</inkscape:perspective>
</defs>
<sodipodi:namedview  showgrid="true" inkscape:cy="25.914874" inkscape:cx="27.947222" inkscape:zoom="14" borderopacity="1.0" bordercolor="#666666" pagecolor="#ffffff" id="base" inkscape:window-maximized="0" inkscape:window-y="106" inkscape:window-x="107" inkscape:window-height="1000" inkscape:window-width="1680" inkscape:document-units="px" inkscape:grid-bbox="true" inkscape:current-layer="layer1" inkscape:pageshadow="2" inkscape:pageopacity="0.0">
	</sodipodi:namedview>
<g id="layer1" inkscape:label="Layer 1" inkscape:groupmode="layer">
	<g>
		<linearGradient id="SVGID_1_" gradientUnits="userSpaceOnUse" x1="2.3542" y1="20.4375" x2="35.8542" y2="20.4375">
			<stop  offset="0" style="stop-color:#000000;stop-opacity:0.6"/>
			<stop  offset="1" style="stop-color:#000000;stop-opacity:0"/>
		</linearGradient>
		<path fill="url(#SVGID_1_)" d="M35.9,23v-5.2h-3.8c-0.3-1.7-1-3.4-2-4.8l2.7-2.7l-3.7-3.7l-2.7,2.7c-1.4-1-3-1.6-4.8-2V3.7h-5.2
			v3.8c-1.7,0.3-3.4,1-4.8,2L9.1,6.8l-3.7,3.7l2.7,2.7c-1,1.4-1.6,3-2,4.8H2.4V23h3.8c0.3,1.7,1,3.4,2,4.8l-2.7,2.7l3.7,3.7l2.7-2.7
			c1.4,1,3,1.6,4.8,2v3.8h5.2v-3.8c1.7-0.3,3.4-1,4.8-2l2.7,2.7l3.7-3.7l-2.7-2.7c1-1.4,1.6-3,2-4.8H35.9z M19.1,27.4
			c-3.8,0-6.9-3.1-6.9-6.9s3.1-6.9,6.9-6.9c3.8,0,6.9,3.1,6.9,6.9S22.9,27.4,19.1,27.4z"/>
		<linearGradient id="SVGID_2_" gradientUnits="userSpaceOnUse" x1="2.3542" y1="20.4375" x2="35.8542" y2="20.4375">
			<stop  offset="0" style="stop-color:#FFFFFF"/>
			<stop  offset="1" style="stop-color:#FFFFFF;stop-opacity:0"/>
		</linearGradient>
		<path fill="url(#SVGID_2_)" d="M20.7,4.7v2.8v0.8l0.8,0.2c1.6,0.3,3.1,0.9,4.4,1.8l0.7,0.5l0.6-0.6l1.9-1.9l2.2,2.2l-1.9,1.9
			l-0.6,0.6l0.5,0.7c0.9,1.3,1.5,2.8,1.8,4.4l0.2,0.8h0.8h2.8V22h-2.8h-0.8l-0.2,0.8c-0.3,1.6-0.9,3.1-1.8,4.4l-0.5,0.7l0.6,0.6
			l1.9,1.9l-2.2,2.2l-1.9-1.9l-0.6-0.6l-0.7,0.5c-1.3,0.9-2.8,1.5-4.4,1.8l-0.8,0.2v0.8v2.8h-3.2v-2.8v-0.8l-0.8-0.2
			c-1.6-0.3-3.1-0.9-4.4-1.8l-0.7-0.5L11,30.7l-1.9,1.9l-2.2-2.2l1.9-1.9l0.6-0.6l-0.5-0.7c-0.9-1.3-1.5-2.8-1.8-4.4L6.9,22H6.1H3.4
			v-3.2h2.8h0.8L7.1,18C7.4,16.5,8,15,8.9,13.6l0.5-0.7l-0.6-0.6l-1.9-1.9l2.2-2.2l1.9,1.9l0.6,0.6l0.7-0.5c1.3-0.9,2.8-1.5,4.4-1.8
			l0.8-0.2V7.4V4.7H20.7 M19.1,28.4c4.4,0,7.9-3.6,7.9-7.9s-3.6-7.9-7.9-7.9s-7.9,3.6-7.9,7.9S14.7,28.4,19.1,28.4 M21.7,3.7h-5.2
			v3.8c-1.7,0.3-3.4,1-4.8,2L9.1,6.8l-3.7,3.7l2.7,2.7c-1,1.4-1.6,3-2,4.8H2.4V23h3.8c0.3,1.7,1,3.4,2,4.8l-2.7,2.7l3.7,3.7l2.7-2.7
			c1.4,1,3,1.6,4.8,2v3.8h5.2v-3.8c1.7-0.3,3.4-1,4.8-2l2.7,2.7l3.7-3.7l-2.7-2.7c1-1.4,1.6-3,2-4.8h3.8v-5.2h-3.8
			c-0.3-1.7-1-3.4-2-4.8l2.7-2.7l-3.7-3.7l-2.7,2.7c-1.4-1-3-1.6-4.8-2V3.7L21.7,3.7z M19.1,27.4c-3.8,0-6.9-3.1-6.9-6.9
			s3.1-6.9,6.9-6.9c3.8,0,6.9,3.1,6.9,6.9S22.9,27.4,19.1,27.4L19.1,27.4z"/>
	</g>
	
		<g id="g217" transform="matrix(0.6655085,0,3.4844817e-2,0.8732492,-4.699869,-3.4493441)" inkscape:export-filename="/home/jimmac/ximian_art/icons/nautilus/suse93/gnome-fs-directory.png" inkscape:export-xdpi="74.800003" inkscape:export-ydpi="74.800003" opacity="0.4148">
	</g>
	
		<g id="g2698" transform="matrix(0.6655085,0,3.4844817e-2,0.8732492,-41.705335,-6.0071131)" inkscape:export-filename="/home/jimmac/ximian_art/icons/nautilus/suse93/gnome-fs-directory.png" inkscape:export-xdpi="74.800003" inkscape:export-ydpi="74.800003" opacity="0.4148">
	</g>
	
		<g id="g4269" transform="matrix(0.6655085,0,3.4844817e-2,0.8732492,27.721263,-4.4085091)" inkscape:export-filename="/home/jimmac/ximian_art/icons/nautilus/suse93/gnome-fs-directory.png" inkscape:export-xdpi="74.800003" inkscape:export-ydpi="74.800003" opacity="0.4148">
	</g>
	
		<g id="g4291" transform="matrix(0.6655085,0,3.4844817e-2,0.8732492,-9.2842017,-6.9662771)" inkscape:export-filename="/home/jimmac/ximian_art/icons/nautilus/suse93/gnome-fs-directory.png" inkscape:export-xdpi="74.800003" inkscape:export-ydpi="74.800003" opacity="0.4148">
	</g>
	
		<g id="g3464" transform="matrix(0.6655085,0,3.4844817e-2,0.8732492,66.583932,-5.5073311)" inkscape:export-filename="/home/jimmac/ximian_art/icons/nautilus/suse93/gnome-fs-directory.png" inkscape:export-xdpi="74.800003" inkscape:export-ydpi="74.800003" opacity="0.4148">
	</g>
	
		<g id="g3486" transform="matrix(0.6655085,0,3.4844817e-2,0.8732492,29.578466,-8.0651011)" inkscape:export-filename="/home/jimmac/ximian_art/icons/nautilus/suse93/gnome-fs-directory.png" inkscape:export-xdpi="74.800003" inkscape:export-ydpi="74.800003" opacity="0.4148">
	</g>
	<g id="g3489" transform="matrix(0.6394422,0,0,0.6394422,71.928729,-6.0967621)" inkscape:label="pattern">
	</g>
	<g id="rect6264" opacity="0.5" filter="url(#filter6290)" enable-background="new    ">
		<path d="M21.8,40.2h17.6c2.2,0,4,1.3,4,2.8l0,0c0,1.5-1.8,2.8-4,2.8H21.8c-2.2,0-4-1.3-4-2.8l0,0C17.8,41.4,19.6,40.2,21.8,40.2z"
			/>
	</g>
	
		<linearGradient id="rect4873_1_" gradientUnits="userSpaceOnUse" x1="36.3629" y1="0.469" x2="34.824" y2="35.5106" gradientTransform="matrix(0.7072 0 0 -0.8395 5.4665 53.311)">
		<stop  offset="0" style="stop-color:#EABA6F"/>
		<stop  offset="1" style="stop-color:#B97A1B"/>
	</linearGradient>
	<path id="rect4873" fill="url(#rect4873_1_)" stroke="#A0670C" stroke-width="1" d="M21.5,26.5h18.1c1.1,0,1.9,0.9,1.9,1.9v14.2
		c0,1.1-0.9,1.9-1.9,1.9H21.5c-1.1,0-1.9-0.9-1.9-1.9V28.4C19.6,27.4,20.4,26.5,21.5,26.5z"/>
	
		<linearGradient id="path4881_1_" gradientUnits="userSpaceOnUse" x1="46.0513" y1="30.1855" x2="52.3317" y2="26.9955" gradientTransform="matrix(0.7002 0 0 -0.9599 8.9292 52.8969)">
		<stop  offset="0" style="stop-color:#F9EAD2"/>
		<stop  offset="1" style="stop-color:#E4A546"/>
	</linearGradient>
	
		<linearGradient id="path4881_2_" gradientUnits="userSpaceOnUse" x1="49.3385" y1="41.5771" x2="45.1983" y2="40.1799" gradientTransform="matrix(0.7002 0 0 -0.7218 8.9292 55.2775)">
		<stop  offset="0" style="stop-color:#A0670C"/>
		<stop  offset="1" style="stop-color:#E6C99D"/>
	</linearGradient>
	<path id="path4881" sodipodi:nodetypes="ccccc" fill="url(#path4881_1_)" stroke="url(#path4881_2_)" stroke-linejoin="round" d="
		M41.3,26.4l4.2,2.7l-0.7-4.8l-3.7-2.8L41.3,26.4z"/>
	
		<linearGradient id="rect4877_1_" gradientUnits="userSpaceOnUse" x1="36.2746" y1="19.838" x2="34.7357" y2="54.8796" gradientTransform="matrix(0.7097 0 0 -0.2991 5.4037 36.842)">
		<stop  offset="0" style="stop-color:#120C02"/>
		<stop  offset="1" style="stop-color:#B97A1B"/>
	</linearGradient>
	<path id="rect4877" fill="url(#rect4877_1_)" stroke="#A0670C" stroke-width="1" d="M20.1,21.5h20.9c0.3,0,0.6,0.2,0.6,0.6v5.3
		c0,0.3-0.2,0.6-0.6,0.6H20.1c-0.3,0-0.6-0.2-0.6-0.6v-5.3C19.5,21.7,19.7,21.5,20.1,21.5z"/>
	
		<linearGradient id="rect6220_1_" gradientUnits="userSpaceOnUse" x1="30.581" y1="34.0447" x2="30.581" y2="25.6697" gradientTransform="matrix(0.7002 0 0 -0.7 8.9292 54.759)">
		<stop  offset="0" style="stop-color:#000000"/>
		<stop  offset="1" style="stop-color:#000000;stop-opacity:0"/>
	</linearGradient>
	
		<rect id="rect6220" x="19.8" y="29.1" opacity="0.5529" fill="url(#rect6220_1_)" enable-background="new    " width="21.2" height="8.1"/>
	
		<linearGradient id="path6230_1_" gradientUnits="userSpaceOnUse" x1="29.9339" y1="15.9587" x2="27.5768" y2="34.0527" gradientTransform="matrix(1.0095 0 0 -0.9803 -0.1499 48.15)">
		<stop  offset="0" style="stop-color:#FFFFFF"/>
		<stop  offset="1" style="stop-color:#FFFFFF;stop-opacity:0"/>
	</linearGradient>
	
		<path id="path6230" inkscape:href="#rect4873" xlink:href="#rect4873" inkscape:radius="-1.0565168" sodipodi:type="inkscape:offset" inkscape:original="M 21.5 26.5 C 20.439526 26.5 19.5625 27.377026 19.5625 28.4375 L 19.5625 42.59375 C 19.5625 43.654224 20.439526 44.5 21.5 44.5 L 39.59375 44.5 C 40.654224 44.5 41.5 43.654224 41.5 42.59375 L 41.5 28.4375 C 41.5 27.377026 40.654224 26.5 39.59375 26.5 L 21.5 26.5 z " opacity="0.4765" fill="none" stroke="url(#path6230_1_)" stroke-width="1.0052" enable-background="new    " d="
		M21.4,27.9c-0.5,0-0.9,0.4-0.9,0.9v13.9c0,0.5,0.4,0.8,0.9,0.8h18.3c0.5,0,0.9-0.3,0.9-0.8V28.8c0-0.5-0.4-0.9-0.9-0.9H21.4z"/>
	
		<linearGradient id="path4883_1_" gradientUnits="userSpaceOnUse" x1="15.622" y1="31.9448" x2="9.4485" y2="24.9721" gradientTransform="matrix(0.7002 0 0 -0.9577 8.9292 52.837)">
		<stop  offset="0" style="stop-color:#F9EAD2"/>
		<stop  offset="1" style="stop-color:#E4A546"/>
	</linearGradient>
	
		<linearGradient id="path4883_2_" gradientUnits="userSpaceOnUse" x1="13.9589" y1="40.2675" x2="15.284" y2="39.7542" gradientTransform="matrix(0.7002 0 0 -0.7201 8.9292 55.2121)">
		<stop  offset="0" style="stop-color:#A0670C"/>
		<stop  offset="1" style="stop-color:#E6C99D"/>
	</linearGradient>
	
		<path id="path4883" sodipodi:nodetypes="ccccc" fill="url(#path4883_1_)" stroke="url(#path4883_2_)" stroke-width="1" stroke-linejoin="round" d="
		M19.6,21.5l0,4.9L15.5,30l0.6-5.7L19.6,21.5z"/>
	
		<linearGradient id="rect6003_1_" gradientUnits="userSpaceOnUse" x1="5.5785" y1="45.3" x2="27.6214" y2="45.3" gradientTransform="matrix(1 0 0 -0.8333 14.0005 62.7492)">
		<stop  offset="0" style="stop-color:#D7B47F"/>
		<stop  offset="1" style="stop-color:#F4DBB3"/>
	</linearGradient>
	
		<path id="rect6003" opacity="0.6136" fill="none" stroke="url(#rect6003_1_)" stroke-width="1" stroke-linecap="round" stroke-linejoin="round" enable-background="new    " d="
		M20,22.5H41c0.3,0,0.5,0.2,0.5,0.5V27c0,0.3-0.2,0.5-0.5,0.5H20c-0.3,0-0.5-0.2-0.5-0.5V23C19.5,22.7,19.7,22.5,20,22.5z"/>
	
		<linearGradient id="path4885_1_" gradientUnits="userSpaceOnUse" x1="30.33" y1="25.526" x2="30.705" y2="21.7445" gradientTransform="matrix(0.7002 0 0 -0.8854 8.9292 51.6205)">
		<stop  offset="0" style="stop-color:#EABA6F"/>
		<stop  offset="1" style="stop-color:#B97A1B"/>
	</linearGradient>
	
		<linearGradient id="path4885_2_" gradientUnits="userSpaceOnUse" x1="31.2554" y1="38.3281" x2="31.5206" y2="41.6812" gradientTransform="matrix(0.7002 0 0 -0.6658 8.9292 53.8164)">
		<stop  offset="0" style="stop-color:#A0670C"/>
		<stop  offset="1" style="stop-color:#E6C99D"/>
	</linearGradient>
	<path id="path4885" sodipodi:nodetypes="ccccc" fill="url(#path4885_1_)" stroke="url(#path4885_2_)" stroke-width="1" d="
		M19.6,26.5l-1.4,6h24.4l-1.3-6L19.6,26.5z"/>
	
		<linearGradient id="path5406_1_" gradientUnits="userSpaceOnUse" x1="16.4333" y1="36.6387" x2="16.4333" y2="42.4723" gradientTransform="matrix(1 0 0 -1 14.0005 67.999)">
		<stop  offset="0" style="stop-color:#FFFFFF"/>
		<stop  offset="1" style="stop-color:#FFFFFF;stop-opacity:0"/>
	</linearGradient>
	
		<path id="path5406" inkscape:radius="-1.013667" sodipodi:type="inkscape:offset" inkscape:original="M 5.625 6.46875 L 4.21875 12.5 L 28.65625 12.5 L 27.34375 6.5 L 5.625 6.46875 z " opacity="0.3" fill="none" stroke="url(#path5406_1_)" stroke-width="1" enable-background="new    " d="
		M20.4,27.5l-0.9,4h21.9l-0.9-4L20.4,27.5z"/>
	<g>
		<g>
			<linearGradient id="SVGID_3_" gradientUnits="userSpaceOnUse" x1="25.0215" y1="17.1689" x2="40.8428" y2="17.1689">
				<stop  offset="0" style="stop-color:#FF8A3F"/>
				<stop  offset="1" style="stop-color:#FFB294"/>
			</linearGradient>
			<path fill="url(#SVGID_3_)" d="M30.7,24.8c-2.1,0-4-0.7-5.6-1.9l1.7-4.1c1,1.1,2.4,1.8,3.9,1.8c2.9,0,5.2-2.3,5.2-5.2
				c0-0.1,0-0.2,0-0.4l0-0.1l-0.1-0.6l-1.5,0.4l2.2-5.2l4.4,3.7l-1,0.3l0.1,0.5C40,14.4,40,15,40,15.5C40,20.6,35.8,24.8,30.7,24.8z
				"/>
			<path fill="#FF6D2C" d="M36.7,10.3l3.1,2.6L39.2,13l0.2,0.9c0.1,0.5,0.1,1,0.1,1.5c0,4.9-4,8.9-8.9,8.9c-1.8,0-3.6-0.6-5-1.6
				l0.1-0.1l1.2-2.9c1,0.9,2.3,1.4,3.7,1.4c3.1,0,5.7-2.6,5.7-5.7c0-0.1,0-0.3,0-0.4l0-0.1l-0.1-1.1L35.1,14L36.7,10.3 M36.3,8.7
				l-2.9,6.8l1.9-0.5c0,0.2,0,0.3,0,0.5c0,2.6-2.1,4.7-4.7,4.7c-1.7,0-3.2-0.9-4-2.3l-1.9,4.4l-3-2.6c1.6,3.3,5,5.6,8.9,5.6
				c5.5,0,9.9-4.4,9.9-9.9c0-0.6-0.1-1.1-0.2-1.7l1.5-0.4L36.3,8.7L36.3,8.7z"/>
		</g>
		<g>
			<linearGradient id="SVGID_4_" gradientUnits="userSpaceOnUse" x1="25.5055" y1="13.1759" x2="38.91" y2="20.915">
				<stop  offset="0.2586" style="stop-color:#000000;stop-opacity:0.6"/>
				<stop  offset="0.4542" style="stop-color:#000000;stop-opacity:0"/>
			</linearGradient>
			<path fill="url(#SVGID_4_)" d="M41.9,13.4l-5.6-4.7l-2.9,6.8l1.9-0.5c0,0.2,0,0.3,0,0.5c0,2.6-2.1,4.7-4.7,4.7
				c-1.7,0-3.2-0.9-4-2.3l-1.9,4.4l-3-2.6c1.6,3.3,5,5.6,8.9,5.6c5.5,0,9.9-4.4,9.9-9.9c0-0.6-0.1-1.1-0.2-1.7L41.9,13.4z"/>
		</g>
		<g>
			<linearGradient id="SVGID_5_" gradientUnits="userSpaceOnUse" x1="23.9396" y1="8.694" x2="30.8184" y2="15.5728">
				<stop  offset="0" style="stop-color:#A7CC5C"/>
				<stop  offset="1" style="stop-color:#789E2D"/>
			</linearGradient>
			<path fill="url(#SVGID_5_)" d="M20.2,17.8l1-0.2l-0.1-0.5C21.1,16.5,21,16,21,15.5c0-5.2,4.2-9.4,9.4-9.4c2.1,0,4,0.7,5.6,1.9
				l-1.7,4.1c-1-1.1-2.4-1.8-3.9-1.8c-2.9,0-5.2,2.3-5.2,5.2c0,0.1,0,0.2,0,0.4l0,0.1l0.1,0.6l1.5-0.4l-2.2,5.2L20.2,17.8z"/>
			<path fill="#42770C" d="M30.4,6.6c1.8,0,3.6,0.6,5,1.6l-0.1,0.1l-1.2,2.9c-1-0.9-2.3-1.4-3.7-1.4c-3.1,0-5.7,2.6-5.7,5.7
				c0,0.1,0,0.3,0,0.4l0,0.1l0.1,1.1l1.1-0.3l-1.6,3.7L21.3,18l0.5-0.1L21.7,17c-0.1-0.5-0.1-1-0.1-1.5C21.5,10.6,25.5,6.6,30.4,6.6
				 M30.4,5.6c-5.5,0-9.9,4.4-9.9,9.9c0,0.6,0.1,1.1,0.2,1.7l-1.5,0.4l5.6,4.7l2.9-6.8l-1.9,0.5c0-0.2,0-0.3,0-0.5
				c0-2.6,2.1-4.7,4.7-4.7c1.7,0,3.2,0.9,4,2.3l1.9-4.4l3,2.6C37.7,7.9,34.3,5.6,30.4,5.6L30.4,5.6z"/>
		</g>
		<g>
			<linearGradient id="SVGID_6_" gradientUnits="userSpaceOnUse" x1="23.9396" y1="8.694" x2="30.8184" y2="15.5728">
				<stop  offset="0" style="stop-color:#A7CC5C"/>
				<stop  offset="1" style="stop-color:#789E2D"/>
			</linearGradient>
			<path fill="url(#SVGID_6_)" d="M20.2,17.8l1-0.2l-0.1-0.5C21.1,16.5,21,16,21,15.5c0-5.2,4.2-9.4,9.4-9.4c2.1,0,4,0.7,5.6,1.9
				l-1.7,4.1c-1-1.1-2.4-1.8-3.9-1.8c-2.9,0-5.2,2.3-5.2,5.2c0,0.1,0,0.2,0,0.4l0,0.1l0.1,0.6l1.5-0.4l-2.2,5.2L20.2,17.8z"/>
			<path fill="#42770C" d="M30.4,6.6c1.8,0,3.6,0.6,5,1.6l-0.1,0.1l-1.2,2.9c-1-0.9-2.3-1.4-3.7-1.4c-3.1,0-5.7,2.6-5.7,5.7
				c0,0.1,0,0.3,0,0.4l0,0.1l0.1,1.1l1.1-0.3l-1.6,3.7L21.3,18l0.5-0.1L21.7,17c-0.1-0.5-0.1-1-0.1-1.5C21.5,10.6,25.5,6.6,30.4,6.6
				 M30.4,5.6c-5.5,0-9.9,4.4-9.9,9.9c0,0.6,0.1,1.1,0.2,1.7l-1.5,0.4l5.6,4.7l2.9-6.8l-1.9,0.5c0-0.2,0-0.3,0-0.5
				c0-2.6,2.1-4.7,4.7-4.7c1.7,0,3.2,0.9,4,2.3l1.9-4.4l3,2.6C37.7,7.9,34.3,5.6,30.4,5.6L30.4,5.6z"/>
		</g>
		<g>
			<linearGradient id="SVGID_7_" gradientUnits="userSpaceOnUse" x1="22.1525" y1="10.0255" x2="35.5571" y2="17.7646">
				<stop  offset="0.6068" style="stop-color:#000000;stop-opacity:0"/>
				<stop  offset="0.8355" style="stop-color:#000000;stop-opacity:0.7"/>
			</linearGradient>
			<path fill="url(#SVGID_7_)" d="M25.7,15.5c0-2.6,2.1-4.7,4.7-4.7c1.7,0,3.2,0.9,4,2.3l1.9-4.4l3,2.6c-1.6-3.3-5-5.6-8.9-5.6
				c-5.5,0-9.9,4.4-9.9,9.9c0,0.6,0.1,1.1,0.2,1.7l-1.5,0.4l5.6,4.7l2.9-6.8l-1.9,0.5C25.8,15.8,25.7,15.6,25.7,15.5z"/>
		</g>
	</g>
</g>
</svg>
